<svg width="64.000000" height="64.000000" viewBox="0 0 64 64" fill="none" xmlns="http://www.w3.org/2000/svg" xmlns:xlink="http://www.w3.org/1999/xlink">
	<desc>
			Created with Pixso.
	</desc>
	<defs/>
	<rect id="Logo" width="64.000000" height="64.000000" fill="#FFFFFF" fill-opacity="1.000000"/>
	<path id="Vector" d="M42.2451 28.2068L45.708 28.2068L45.708 31.9387L42.2451 31.9387L42.2451 39.0696C42.2451 41.4966 42.395 41.4894 42.6958 41.7738C42.9961 42.0581 43.5977 42.2003 44.499 42.2003C44.7998 42.2358 45.0625 42.2003 45.3633 42.1647C45.6265 42.1647 45.9897 41.9634 46.1772 41.7738L46.1772 45.6833C45.708 45.884 45.1753 46.1098 44.6494 46.1098C44.0859 46.1453 43.5601 46.1453 43.0337 46.1453C42.9985 46.1453 42.4038 46.1453 42.1533 46.1098C41.543 46.0232 40.6357 45.701 40.0723 45.3812C39.7593 45.2035 38.9453 44.4038 38.8511 44.0484C38.5693 43.6041 38.4126 42.7334 38.4126 41.8093L38.4126 31.9387L35.0942 31.9387L35.0942 28.2068L38.4126 28.2068L38.4126 21.9872L42.2451 21.9872L42.2451 28.2068Z" fill="#10239E" fill-opacity="1.000000" fill-rule="nonzero"/>
	<path id="Vector" d="M18.5635 31.9387L21.1934 31.9387L21.1934 45.7188L25.4014 45.7188L25.4014 31.9387L28.5195 31.9387L28.5195 28.2069L25.4014 28.2069L25.4014 27.887C25.4014 27.1406 25.5518 26.4319 25.8521 26.112C26.1528 25.7921 26.6787 25.6144 27.4302 25.6144C28.1064 25.6144 28.7451 25.65 29.3838 25.7211L29.3838 21.9872L27.9561 21.9872L26.5474 21.9872C24.7627 21.9872 23.3535 22.8481 22.5083 23.6754C21.4189 24.7416 21.1934 25.9678 21.1934 27.5671L21.1934 28.2069L18.5635 28.2069L18.5635 31.9387ZM33.9673 33.538L29.8721 33.538L29.8721 45.7188L33.9673 45.7188L33.9673 33.538Z" fill="#10239E" fill-opacity="1.000000" fill-rule="evenodd"/>
	<path id="Vector" d="M32.0068 32.0686L31.9829 32.0686C30.8999 32.0686 30.0225 31.191 30.0225 30.1083C30.0225 29.0257 30.8999 28.1481 31.9829 28.1481L32.0068 28.1481C33.0898 28.1481 33.9673 29.0257 33.9673 30.1083C33.9673 31.191 33.0898 32.0686 32.0068 32.0686Z" fill="#40A9FF" fill-opacity="1.000000" fill-rule="evenodd"/>
</svg>
