<svg width="208.000000" height="64.000000" viewBox="0 0 208 64" fill="none" xmlns="http://www.w3.org/2000/svg" xmlns:xlink="http://www.w3.org/1999/xlink">
	<desc>
			Created with Pixso.
	</desc>
	<defs/>
	<rect id="Logo" width="208.000000" height="64.000000" fill="#FFFFFF" fill-opacity="1.000000"/>
	<path id="Vector" d="M115.263 30.1457L119.923 30.1457L119.923 33.1985L119.992 33.1985C120.2 32.7216 120.51 32.2445 120.925 31.7993C121.304 31.3542 121.753 31.0043 122.271 30.6863C122.754 30.3683 123.307 30.1457 123.894 29.9549C124.446 29.7959 125.067 29.7323 125.689 29.7005C126 29.7005 126.345 29.7641 126.759 29.8595L126.759 34.0572C126.518 34.0254 126.241 33.9936 125.931 33.9618C125.585 33.93 125.274 33.8982 124.999 33.8982C124.101 33.8982 123.341 34.0572 122.72 34.3116C122.098 34.5978 121.581 34.9794 121.201 35.4564C120.821 35.9334 120.545 36.474 120.407 37.11C120.234 37.746 120.165 38.4456 120.165 39.177L120.165 46.6606L115.263 46.6606L115.263 30.1457Z" fill="#10239E" fill-opacity="1.000000" fill-rule="nonzero"/>
	<path id="Vector" d="M108.662 36.6012C108.42 35.4564 108.005 34.5978 107.418 33.9936C106.832 33.4211 105.934 33.1349 104.76 33.1031C103.966 33.1031 103.311 33.2303 102.792 33.4848C102.274 33.7392 101.86 34.0254 101.55 34.3752C101.239 34.7568 101.032 35.1384 100.894 35.52C100.755 35.9334 100.687 36.2832 100.687 36.6012L108.662 36.6012ZM100.687 39.4632C100.755 40.926 101.135 42.0072 101.895 42.6432C102.62 43.311 103.69 43.629 105.071 43.629C106.038 43.629 106.901 43.4064 107.626 42.9612C108.316 42.516 108.765 42.0072 108.938 41.4984L113.253 41.4984C112.562 43.47 111.492 44.901 110.077 45.7278C108.627 46.5865 106.901 46.9998 104.898 46.9998C103.483 46.9998 102.206 46.8091 101.101 46.3957C99.9614 45.9822 98.9951 45.3781 98.2354 44.6148C97.4414 43.8516 96.8198 42.9612 96.4058 41.88C95.9912 40.8306 95.7842 39.654 95.7842 38.382C95.7842 37.1736 95.9912 36.0288 96.4399 34.9476C96.8545 33.8982 97.4761 32.976 98.3042 32.2127C99.0986 31.4496 100.065 30.8135 101.17 30.3683C102.274 29.9231 103.518 29.7005 104.898 29.7005C106.417 29.7005 107.729 29.9867 108.869 30.5273C109.973 31.0679 110.906 31.7993 111.63 32.6898C112.355 33.612 112.874 34.6614 113.219 35.8062C113.529 36.9828 113.633 38.1912 113.564 39.4632L100.687 39.4632Z" fill="#10239E" fill-opacity="1.000000" fill-rule="nonzero"/>
	<path id="Vector" d="M89.7617 46.6606L84.3066 46.6606L78.2275 30.1457L83.3716 30.1457L87.1348 41.3712L87.2036 41.3712L90.9668 30.1457L95.8345 30.1457L89.7617 46.6606Z" fill="#10239E" fill-opacity="1.000000" fill-rule="nonzero"/>
	<path id="Vector" d="M73.3179 36.6012C73.0762 35.4564 72.6616 34.5978 72.0747 33.9936C71.4878 33.4211 70.5903 33.1349 69.4165 33.1031C68.6226 33.1031 67.9668 33.2303 67.4487 33.4848C66.9307 33.7392 66.5166 34.0254 66.2061 34.3752C65.895 34.7568 65.688 35.1384 65.5498 35.52C65.4116 35.9334 65.3428 36.2832 65.3428 36.6012L73.3179 36.6012ZM65.3428 39.4632C65.4116 40.926 65.7915 42.0072 66.5513 42.6432C67.2759 43.311 68.3462 43.629 69.7271 43.629C70.6938 43.629 71.5571 43.4064 72.2822 42.9612C72.9727 42.516 73.4214 42.0072 73.5938 41.4984L77.9092 41.4984C77.2188 43.47 76.1484 44.901 74.7334 45.7278C73.2832 46.5865 71.5571 46.9998 69.5547 46.9998C68.1392 46.9998 66.8618 46.8091 65.7568 46.3957C64.6177 45.9822 63.6509 45.3781 62.8916 44.6148C62.0977 43.8516 61.4761 42.9612 61.062 41.88C60.6475 40.8306 60.4404 39.654 60.4404 38.382C60.4404 37.1736 60.6475 36.0288 61.0962 34.9476C61.5107 33.8982 62.1323 32.976 62.9604 32.2127C63.7549 31.4496 64.7212 30.8135 65.8262 30.3683C66.9307 29.9231 68.1738 29.7005 69.5547 29.7005C71.0737 29.7005 72.3857 29.9867 73.5249 30.5273C74.6294 31.0679 75.5615 31.7993 76.2866 32.6898C77.0117 33.612 77.5298 34.6614 77.875 35.8062C78.1855 36.9828 78.2891 38.1912 78.2202 39.4632L65.3428 39.4632Z" fill="#10239E" fill-opacity="1.000000" fill-rule="nonzero"/>
	<path id="Vector" d="M53.8569 23.1285L58.6904 23.1285L58.6904 46.6606L53.8569 46.6606L53.8569 23.1285Z" fill="#10239E" fill-opacity="1.000000" fill-rule="nonzero"/>
	<path id="Vector" d="M46.5474 31.2245C46.4434 30.6575 46.2358 30.1535 45.9243 29.6809C45.5781 29.2084 45.1978 28.7989 44.7129 28.4208C44.2285 28.0743 43.6748 27.7908 43.0518 27.6018C42.4287 27.4128 41.8057 27.3183 41.1479 27.2868C39.9023 27.2868 38.8638 27.5073 38.0332 27.9483C37.168 28.3893 36.4756 28.9564 35.9565 29.6809C35.4028 30.4055 35.022 31.2245 34.7798 32.1381C34.5376 33.0832 34.4336 34.0283 34.4336 35.0048C34.4336 35.9499 34.5376 36.895 34.7798 37.777C35.022 38.6591 35.4028 39.4781 35.9565 40.1712C36.4756 40.8957 37.168 41.4628 38.0332 41.9038C38.8638 42.3448 39.9023 42.5338 41.1479 42.5338C42.8096 42.5338 44.0898 42.0928 45.0244 41.1478C45.959 40.2342 46.5474 39.0056 46.7549 37.4935L52.0156 37.4935C51.8774 38.9111 51.4966 40.1712 50.9429 41.3053C50.3545 42.4393 49.5933 43.4159 48.6587 44.2035C47.6895 45.0225 46.582 45.6211 45.3359 46.0306C44.0552 46.4716 42.6709 46.6606 41.1479 46.6606C39.2446 46.6606 37.5488 46.3771 36.0259 45.7786C34.5029 45.18 33.2568 44.361 32.2188 43.2899C31.1807 42.2503 30.3843 41.0217 29.8306 39.6042C29.2769 38.1866 29 36.6429 29 35.0048C29 33.3352 29.2769 31.7916 29.8306 30.3425C30.3843 28.8934 31.1807 27.6333 32.2188 26.5622C33.2568 25.5226 34.5029 24.6721 36.0259 24.0421C37.5488 23.4435 39.2446 23.16 41.1479 23.1285C42.498 23.1285 43.7783 23.3175 44.9897 23.664C46.2012 24.0421 47.2739 24.5461 48.2432 25.2391C49.2124 25.9322 50.0083 26.7512 50.6313 27.7593C51.2544 28.7674 51.6353 29.933 51.8081 31.2245L46.5474 31.2245Z" fill="#10239E" fill-opacity="1.000000" fill-rule="nonzero"/>
	<path id="Vector" d="M157.024 25.118L161.398 25.118L161.398 29.5978L157.024 29.5978L157.024 38.1579C157.024 41.0714 157.214 41.0627 157.593 41.4041C157.973 41.7454 158.732 41.916 159.872 41.916C160.251 41.9587 160.583 41.916 160.963 41.8734C161.295 41.8734 161.754 41.6317 161.991 41.4041L161.991 46.0971C161.398 46.338 160.726 46.6091 160.061 46.6091C159.349 46.6518 158.685 46.6518 158.021 46.6518C157.976 46.6518 157.225 46.6518 156.908 46.6091C156.138 46.5052 154.991 46.1185 154.279 45.7345C153.884 45.5211 152.855 44.5612 152.737 44.1346C152.381 43.6013 152.183 42.556 152.183 41.4467L152.183 29.5978L147.991 29.5978L147.991 25.118L152.183 25.118L152.183 17.6518L157.024 17.6518L157.024 25.118Z" fill="#10239E" fill-opacity="1.000000" fill-rule="nonzero"/>
	<path id="Vector" d="M127.737 29.8166L130.959 29.8166L130.959 46.6615L136.115 46.6615L136.115 29.8166L139.936 29.8166L139.936 25.2548L136.115 25.2548L136.115 24.8638C136.115 23.9514 136.299 23.085 136.667 22.694C137.036 22.303 137.68 22.0858 138.601 22.0858C139.429 22.0858 140.212 22.1292 140.995 22.2161L140.995 17.6518L139.245 17.6518L137.519 17.6518C135.333 17.6518 133.606 18.7042 132.571 19.7155C131.236 21.0188 130.959 22.5177 130.959 24.4727L130.959 25.2548L127.737 25.2548L127.737 29.8166ZM146.61 31.7716L141.593 31.7716L141.593 46.6615L146.61 46.6615L146.61 31.7716Z" fill="#10239E" fill-opacity="1.000000" fill-rule="evenodd"/>
	<path id="Vector" d="M144.214 29.9754L144.173 29.9754C142.85 29.9754 141.777 28.9026 141.777 27.5792C141.777 26.2557 142.85 25.1829 144.173 25.1829L144.214 25.1829C145.538 25.1829 146.61 26.2557 146.61 27.5792C146.61 28.9026 145.538 29.9754 144.214 29.9754Z" fill="#40A9FF" fill-opacity="1.000000" fill-rule="evenodd"/>
</svg>
