<svg width="13.252930" height="13.999023" viewBox="0 0 13.2529 13.999" fill="none" xmlns="http://www.w3.org/2000/svg" xmlns:xlink="http://www.w3.org/1999/xlink">
	<desc>
			Created with Pixso.
	</desc>
	<defs/>
	<path id="Vector" d="M13.0781 8.7789L12.0547 7.9039C12.103 7.60703 12.1279 7.30389 12.1279 7.00079C12.1279 6.69766 12.103 6.39453 12.0547 6.09766L13.0781 5.22266C13.1553 5.15659 13.2104 5.06854 13.2363 4.97031C13.2627 4.87207 13.2578 4.76825 13.2236 4.67267L13.2095 4.63202C12.9277 3.84457 12.5059 3.11459 11.9639 2.47736L11.936 2.44452C11.8701 2.36728 11.7827 2.31174 11.6846 2.28522C11.5869 2.25873 11.4834 2.26251 11.3877 2.29608L10.1172 2.74765C9.64844 2.36328 9.125 2.06015 8.55957 1.84766L8.31396 0.519531C8.29541 0.419586 8.24707 0.327667 8.17529 0.25592C8.10303 0.184204 8.01074 0.136078 7.91113 0.117981L7.86865 0.110168C7.05469 -0.0367126 6.19824 -0.0367126 5.38428 0.110168L5.34229 0.117981C5.24219 0.136078 5.1499 0.184204 5.07812 0.25592C5.00586 0.327667 4.95752 0.419586 4.93896 0.519531L4.69238 1.85391C4.13086 2.06644 3.6084 2.36942 3.14551 2.75079L1.86572 2.29608C1.77002 2.26227 1.66602 2.25833 1.56836 2.28485C1.47021 2.31137 1.38281 2.36707 1.31738 2.44452L1.28906 2.47736C0.748047 3.11505 0.326172 3.84491 0.0439453 4.63202L0.0297852 4.67267C-0.0405273 4.86798 0.0170898 5.08673 0.174805 5.22266L1.21094 6.10703C1.1626 6.40079 1.13916 6.70078 1.13916 6.99921C1.13916 7.29922 1.1626 7.59921 1.21094 7.89142L0.174805 8.77579C0.0976562 8.84186 0.0424805 8.92987 0.0166016 9.02814C-0.00927734 9.12637 -0.00488281 9.23019 0.0297852 9.32578L0.0439453 9.36639C0.32666 10.1539 0.745117 10.8805 1.28906 11.5211L1.31738 11.5539C1.38281 11.6312 1.4707 11.6867 1.56836 11.7132C1.6665 11.7397 1.77002 11.7359 1.86572 11.7023L3.14551 11.2477C3.61084 11.6305 4.13135 11.9336 4.69238 12.1445L4.93896 13.4789C4.95752 13.5788 5.00586 13.6708 5.07812 13.7425C5.1499 13.8142 5.24219 13.8623 5.34229 13.8805L5.38428 13.8883C6.20605 14.0359 7.04736 14.0359 7.86865 13.8883L7.91113 13.8805C8.01074 13.8623 8.10303 13.8142 8.17529 13.7425C8.24707 13.6708 8.29541 13.5788 8.31396 13.4789L8.55957 12.1508C9.125 11.9388 9.65137 11.6347 10.1172 11.2508L11.3877 11.7023C11.4834 11.7362 11.5869 11.7401 11.6851 11.7136C11.7827 11.6871 11.8706 11.6314 11.936 11.5539L11.9639 11.5211C12.5078 10.8789 12.9268 10.1539 13.2095 9.36639L13.2236 9.32578C13.2939 9.13361 13.2358 8.91486 13.0781 8.7789ZM10.9453 6.28204C10.9844 6.51797 11.0049 6.76016 11.0049 7.00235C11.0049 7.24454 10.9844 7.48672 10.9453 7.72266L10.8423 8.34921L12.0093 9.34766C11.8325 9.75531 11.6089 10.1412 11.3438 10.4977L9.89355 9.98358L9.40332 10.3867C9.02979 10.693 8.61426 10.9336 8.16406 11.1024L7.56885 11.3258L7.28906 12.8414C6.84766 12.8914 6.40234 12.8914 5.96094 12.8414L5.68115 11.3227L5.09082 11.0961C4.64551 10.9273 4.23145 10.6867 3.86084 10.382L3.37012 9.97736L1.91113 10.4961C1.64551 10.1383 1.42334 9.75235 1.24512 9.3461L2.4248 8.33829L2.32324 7.71329C2.28613 7.48047 2.26562 7.23984 2.26562 7.00235C2.26562 6.76328 2.28418 6.52423 2.32324 6.29141L2.4248 5.66641L1.24512 4.6586C1.42188 4.25079 1.64551 3.86639 1.91113 3.50861L3.37012 4.02734L3.86084 3.62265C4.23145 3.31796 4.64551 3.07733 5.09082 2.9086L5.68262 2.68515L5.9624 1.16641C6.40137 1.11639 6.8501 1.11639 7.29053 1.16641L7.57031 2.68204L8.16553 2.90546C8.61426 3.07422 9.03125 3.31485 9.40479 3.62109L9.89551 4.02423L11.3452 3.51016C11.6108 3.86798 11.833 4.25391 12.0107 4.66016L10.8438 5.6586L10.9453 6.28204ZM6.62793 4.0961C5.10938 4.0961 3.87793 5.32733 3.87793 6.8461C3.87793 8.36484 5.10938 9.5961 6.62793 9.5961C8.14697 9.5961 9.37793 8.36484 9.37793 6.8461C9.37793 5.32733 8.14697 4.0961 6.62793 4.0961ZM7.86572 8.08359C7.70312 8.24637 7.51025 8.37546 7.29785 8.46341C7.08545 8.55136 6.85791 8.59647 6.62793 8.5961C6.16113 8.5961 5.72168 8.41327 5.39062 8.08359C5.22803 7.9213 5.09863 7.72839 5.01074 7.51602C4.92285 7.30365 4.87793 7.07596 4.87793 6.8461C4.87793 6.37891 5.06104 5.93985 5.39062 5.60858C5.72168 5.27734 6.16113 5.0961 6.62793 5.0961C7.09521 5.0961 7.53418 5.27734 7.86572 5.60858C8.02832 5.7709 8.15771 5.96381 8.24561 6.17618C8.3335 6.38855 8.37842 6.61621 8.37793 6.8461C8.37793 7.31329 8.19531 7.75235 7.86572 8.08359Z" fill="#000000" fill-opacity="0.850000" fill-rule="nonzero"/>
</svg>
